<svg xmlns="http://www.w3.org/2000/svg" width="564" height="564" viewBox="0 0 564 564">
  <defs>
    <linearGradient id="app_circle_app_logo-a" x1="50%" x2="50%" y1="0%" y2="100%">
      <stop offset="0%" stop-color="#FF8E34"/>
      <stop offset="100%" stop-color="#FF7734"/>
    </linearGradient>
  </defs>
  <g fill="none" fill-rule="evenodd">
    <rect width="564" height="564" fill="url(#app_circle_app_logo-a)" rx="159"/>
    <path fill="#FFF" d="M231.232772,360.278371 C259.469885,383.308855 264.223471,407.777876 245.49353,433.685432 C222.405605,464.8797 179.672147,476.21047 143.49948,458.661524 L143.196514,458.514542 C143.109051,458.47211 143.021663,458.429522 142.934351,458.386779 C102.271494,438.480513 85.4579831,389.406134 105.380324,348.776086 L150.471975,256.81521 L175.810005,205.140291 L206.262063,143.035715 C221.059964,112.856558 251.924168,95.7754342 283.519167,97.0684781 C314.039798,96.952875 343.414814,113.892722 357.737937,143.103605 L458.619676,348.843977 C478.542017,389.474024 461.728506,438.548403 421.065649,458.454669 C420.978337,458.497412 420.890949,458.54 420.803486,458.582432 L420.50052,458.729414 C380.087592,478.335497 331.48557,461.8943 311.239235,421.978945 C300.745384,399.92716 307.743953,379.112776 332.234941,359.535795 L332.226841,359.535795 C350.64597,344.669201 362.425778,321.917168 362.425778,296.416033 C362.425778,251.627151 326.087895,215.318588 281.262845,215.318588 C236.437795,215.318588 200.099912,251.627151 200.099912,296.416033 C200.099912,322.345588 212.278847,345.432895 231.232772,360.278371 Z M281.336152,338.9178 C257.784007,338.9178 238.691222,319.84042 238.691222,296.307279 C238.691222,272.774137 257.784007,253.696757 281.336152,253.696757 C304.888297,253.696757 323.981083,272.774137 323.981083,296.307279 C323.981083,319.84042 304.888297,338.9178 281.336152,338.9178 Z"/>
  </g>
</svg>
